Hansel.and.Gretel.Witch.Hunters.2013.TS.x264.AAC-OFFLiNE

Sources: Video - MATiNE NEWCAM .... Audio - MINISTRY ... Thanks to both :)

Ok theres a bit of slight flicker to what ive noticed so i cropped 2px off each side then resized the video to what i thought it should look like, then played with contrast, gamma, brightness, sat, levels and sharpen, audio is perfectly synced due to MINISTRY cheers.
 
http://www.imdb.com/title/tt1428538/

In this spin on the fairy tale, Hansel & Gretel are now bounty hunters who track and kill witches all over the world. As the fabled Blood Moon approaches, the siblings encounter a new form of evil that might hold a secret to their past.

General
Complete name                            : Hansel and Gretel Witch Hunters 2013 TS x264 AAC-OFFLiNE.mp4
Format                                   : MPEG-4
Format profile                           : Base Media
Codec ID                                 : isom
File size                                : 1.41 GiB
Duration                                 : 1h 20mn
Overall bit rate mode                    : Variable
Overall bit rate                         : 2 519 Kbps
Encoded date                             : UTC 2013-02-14 05:38:08
Tagged date                              : UTC 2013-02-14 05:38:08

Video
ID                                       : 1
Format                                   : AVC
Format/Info                              : Advanced Video Codec
Format profile                           : High@L4.1
Format settings, CABAC                   : Yes
Format settings, ReFrames                : 3 frames
Codec ID                                 : avc1
Codec ID/Info                            : Advanced Video Coding
Duration                                 : 1h 20mn
Bit rate mode                            : Variable
Bit rate                                 : 2 379 Kbps
Maximum bit rate                         : 40.0 Mbps
Width                                    : 720 pixels
Height                                   : 368 pixels
Display aspect ratio                     : 1.957
Frame rate mode                          : Constant
Frame rate                               : 29.970 fps
Color space                              : YUV
Chroma subsampling                       : 4:2:0
Bit depth                                : 8 bits
Scan type                                : Progressive
Bits/(Pixel*Frame)                       : 0.300
Stream size                              : 1.33 GiB (94%)
Writing library                          : x264 core 129 r2245 bc13772

Audio
ID                                       : 2
Format                                   : AAC
Format/Info                              : Advanced Audio Codec
Format profile                           : LC
Codec ID                                 : 40
Duration                                 : 1h 20mn
Bit rate mode                            : Variable
Bit rate                                 : 136 Kbps
Maximum bit rate                         : 159 Kbps
Channel(s)                               : 2 channels
Channel positions                        : Front: L R
Sampling rate                            : 48.0 KHz
Compression mode                         : Lossy
Stream size                              : 78.2 MiB (5%)
Language                                 : English
Encoded date                             : UTC 2013-02-14 00:53:53
Tagged date                              : UTC 2013-02-14 05:38:50


Actors:	Jeremy Renner, Gemma Arterton, Peter Stormare

Plot: In this dark spin on the fairy tale, siblings Hansel and Gretel are
a formidable team of bounty hunters who track and kill witches all over the world.

IMDB: http://www.imdb.com/title/tt1428538/

Screens: 
 
http://www.shotpix.com/images/20973347053434955412.png
 
http://www.shotpix.com/images/07788395402839238905.png
 
http://www.shotpix.com/images/34424199724224616369.png
 
http://www.shotpix.com/images/76701651751948929236.png
 
http://www.shotpix.com/images/40037069187580277783.png
 
http://www.shotpix.com/images/11786269904142355170.png
 
http://www.shotpix.com/images/30574889539660222962.png
 
http://www.shotpix.com/images/04020223349126903636.png
 
http://www.shotpix.com/images/78072060982135529335.png